<?xml version="1.0" encoding="UTF-8"?>
<svg version="1.1" xmlns="http://www.w3.org/2000/svg" width="91" height="138">
<path d="M0 0 C4.04356581 1.34785527 5.41250936 4.0449701 7.6875 7.4375 C8.10322266 8.03626953 8.51894531 8.63503906 8.94726562 9.25195312 C12 13.72829433 12 13.72829433 12 16 C12.66 16 13.32 16 14 16 C15.4453125 18.01953125 15.4453125 18.01953125 17.125 20.8125 C20.32778993 26.01787647 23.81131715 30.91174204 27.49609375 35.78515625 C29 38 29 38 29 40 C29.66 40 30.32 40 31 40 C32.4453125 42.01953125 32.4453125 42.01953125 34.125 44.8125 C36.53963322 48.71764756 39.02218233 52.49428184 41.75 56.1875 C45.70643187 61.54532947 49.47961721 67.01644701 53.23144531 72.51831055 C53.67713867 73.170979 54.12283203 73.82364746 54.58203125 74.49609375 C54.9992041 75.11339355 55.41637695 75.73069336 55.84619141 76.36669922 C57.05655841 78.13940103 57.05655841 78.13940103 58.88671875 80.16015625 C60 82 60 82 60.06640625 84.47265625 C58.57803033 88.00005267 56.06828828 89.47424209 52.9375 91.4375 C51.73749442 92.22666943 50.53827209 93.01703118 49.33984375 93.80859375 C48.23769531 94.53175781 47.13554688 95.25492187 46 96 C44.65492149 96.9841451 43.31924497 97.98148614 42 99 C37.43437497 102.48275243 32.68697495 105.70170794 27.953125 108.94921875 C26.18235474 110.17892032 24.43343399 111.44250759 22.734375 112.76953125 C21 114 21 114 19 114 C18.67 114.66 18.34 115.32 18 116 C16.656981 116.98276712 15.27518989 117.91305599 13.875 118.8125 C10.86612599 120.75772747 7.9701608 122.76107358 5.125 124.9375 C4.09375 125.618125 3.0625 126.29875 2 127 C1.01 126.67 0.02 126.34 -1 126 C-1.02332902 109.71929697 -1.04097919 93.43859933 -1.05181217 77.15788364 C-1.05697512 69.59898381 -1.0640178 62.04009435 -1.07543945 54.48120117 C-1.08538632 47.89520334 -1.09185343 41.30921302 -1.09408849 34.72320789 C-1.0953956 31.23386929 -1.09848142 27.74455216 -1.10573006 24.25522041 C-1.11374398 20.36618768 -1.11399114 16.47717622 -1.11352539 12.58813477 C-1.11712067 11.42288773 -1.12071594 10.25764069 -1.12442017 9.05708313 C-1.1230455 8.00393921 -1.12167084 6.95079529 -1.12025452 5.86573792 C-1.12163721 4.48443113 -1.12163721 4.48443113 -1.12304783 3.07521915 C-1 1 -1 1 0 0 Z " fill="#F2F2F2" transform="translate(13,4)"/>
<path d="M0 0 C3.39914975 1.13304992 4.05254451 2.12518475 6 5 C5.67 5.66 5.34 6.32 5 7 C4.01 6.67 3.02 6.34 2 6 C1.67 44.94 1.34 83.88 1 124 C3.31 122.68 5.62 121.36 8 120 C9.65172812 119.29713697 11.31301918 118.61344757 13 118 C9.61791761 121.58102841 6.30323854 124.56773474 2 127 C1.01 126.67 0.02 126.34 -1 126 C-1.02332902 109.71929697 -1.04097919 93.43859933 -1.05181217 77.15788364 C-1.05697512 69.59898381 -1.0640178 62.04009435 -1.07543945 54.48120117 C-1.08538632 47.89520334 -1.09185343 41.30921302 -1.09408849 34.72320789 C-1.0953956 31.23386929 -1.09848142 27.74455216 -1.10573006 24.25522041 C-1.11374398 20.36618768 -1.11399114 16.47717622 -1.11352539 12.58813477 C-1.11712067 11.42288773 -1.12071594 10.25764069 -1.12442017 9.05708313 C-1.1230455 8.00393921 -1.12167084 6.95079529 -1.12025452 5.86573792 C-1.12163721 4.48443113 -1.12163721 4.48443113 -1.12304783 3.07521915 C-1 1 -1 1 0 0 Z " fill="#989898" transform="translate(13,4)"/>
<path d="M0 0 C0.33 0 0.66 0 1 0 C1 1.98 1 3.96 1 6 C2.051875 5.38125 3.10375 4.7625 4.1875 4.125 C7.05015677 2.48420892 9.89207246 1.13015547 13 0 C9.61791761 3.58102841 6.30323854 6.56773474 2 9 C1.01 8.67 0.02 8.34 -1 8 C-0.67 5.36 -0.34 2.72 0 0 Z " fill="#6A6A6A" transform="translate(13,122)"/>
<path d="M0 0 C0.99 0.33 1.98 0.66 3 1 C3 1.66 3 2.32 3 3 C2.34 3 1.68 3 1 3 C0.67 5.97 0.34 8.94 0 12 C-0.33 12 -0.66 12 -1 12 C-1.02687279 10.18757948 -1.04633715 8.37504767 -1.0625 6.5625 C-1.07410156 5.55316406 -1.08570313 4.54382813 -1.09765625 3.50390625 C-1 1 -1 1 0 0 Z " fill="#4A4A4A" transform="translate(13,4)"/>
<path d="M0 0 C1.32 0.33 2.64 0.66 4 1 C4 1.99 4 2.98 4 4 C3.01 3.67 2.02 3.34 1 3 C1 4.98 1 6.96 1 9 C0.67 9 0.34 9 0 9 C0 6.03 0 3.06 0 0 Z " fill="#B0B0B0" transform="translate(14,7)"/>
<path d="" fill="#000000" transform="translate(0,0)"/>
<path d="" fill="#000000" transform="translate(0,0)"/>
<path d="" fill="#000000" transform="translate(0,0)"/>
<path d="" fill="#000000" transform="translate(0,0)"/>
<path d="" fill="#000000" transform="translate(0,0)"/>
<path d="" fill="#000000" transform="translate(0,0)"/>
<path d="" fill="#000000" transform="translate(0,0)"/>
<path d="" fill="#000000" transform="translate(0,0)"/>
<path d="" fill="#000000" transform="translate(0,0)"/>
<path d="" fill="#000000" transform="translate(0,0)"/>
<path d="" fill="#000000" transform="translate(0,0)"/>
<path d="" fill="#000000" transform="translate(0,0)"/>
<path d="" fill="#000000" transform="translate(0,0)"/>
<path d="" fill="#000000" transform="translate(0,0)"/>
<path d="" fill="#000000" transform="translate(0,0)"/>
<path d="" fill="#000000" transform="translate(0,0)"/>
<path d="" fill="#000000" transform="translate(0,0)"/>
<path d="" fill="#000000" transform="translate(0,0)"/>
<path d="" fill="#000000" transform="translate(0,0)"/>
<path d="" fill="#000000" transform="translate(0,0)"/>
<path d="" fill="#000000" transform="translate(0,0)"/>
<path d="" fill="#000000" transform="translate(0,0)"/>
<path d="" fill="#000000" transform="translate(0,0)"/>
<path d="" fill="#000000" transform="translate(0,0)"/>
<path d="" fill="#000000" transform="translate(0,0)"/>
<path d="" fill="#000000" transform="translate(0,0)"/>
<path d="" fill="#000000" transform="translate(0,0)"/>
<path d="" fill="#000000" transform="translate(0,0)"/>
<path d="" fill="#000000" transform="translate(0,0)"/>
<path d="" fill="#000000" transform="translate(0,0)"/>
<path d="" fill="#000000" transform="translate(0,0)"/>
<path d="" fill="#000000" transform="translate(0,0)"/>
<path d="" fill="#000000" transform="translate(0,0)"/>
<path d="" fill="#000000" transform="translate(0,0)"/>
<path d="" fill="#000000" transform="translate(0,0)"/>
<path d="" fill="#010000" transform="translate(0,0)"/>
<path d="" fill="#000000" transform="translate(0,0)"/>
<path d="" fill="#000000" transform="translate(0,0)"/>
<path d="" fill="#000000" transform="translate(0,0)"/>
<path d="" fill="#000000" transform="translate(0,0)"/>
<path d="" fill="#000000" transform="translate(0,0)"/>
<path d="" fill="#000000" transform="translate(0,0)"/>
<path d="" fill="#000000" transform="translate(0,0)"/>
<path d="" fill="#000000" transform="translate(0,0)"/>
<path d="" fill="#000000" transform="translate(0,0)"/>
<path d="" fill="#000000" transform="translate(0,0)"/>
<path d="" fill="#000000" transform="translate(0,0)"/>
<path d="" fill="#FF0000" transform="translate(0,0)"/>
<path d="" fill="#000000" transform="translate(0,0)"/>
<path d="" fill="#000000" transform="translate(0,0)"/>
<path d="" fill="#000000" transform="translate(0,0)"/>
</svg>
